<?xml version="1.0"?>
<svg xmlns="http://www.w3.org/2000/svg" xmlns:xlink="http://www.w3.org/1999/xlink" xmlns:svgjs="http://svgjs.com/svgjs" version="1.1" width="512" height="512" x="0" y="0" viewBox="0 0 192.905 192.905" style="enable-background:new 0 0 512 512" xml:space="preserve" class=""><g>
<g xmlns="http://www.w3.org/2000/svg">
	<path d="M190.707,180.101l-47.078-47.076c11.702-14.072,18.752-32.143,18.752-51.831C162.381,36.423,125.959,0,81.192,0   C36.422,0,0,36.423,0,81.194c0,44.767,36.422,81.188,81.192,81.188c19.688,0,37.759-7.05,51.831-18.75l47.079,47.077   c1.464,1.464,3.384,2.196,5.303,2.196c1.919,0,3.839-0.732,5.304-2.197C193.637,187.778,193.637,183.029,190.707,180.101z    M15,81.194C15,44.694,44.693,15,81.192,15c36.497,0,66.189,29.694,66.189,66.193c0,36.496-29.692,66.188-66.189,66.188   C44.693,147.381,15,117.69,15,81.194z" fill="#000000" data-original="#000000" style="" class=""/>
	<path d="M81.19,39.847c-22.797,0-41.344,18.547-41.344,41.344s18.547,41.344,41.344,41.344c22.798,0,41.346-18.547,41.346-41.344   S103.987,39.847,81.19,39.847z M109.916,75.191h-9.658c-0.401-6.594-1.472-13.098-3.254-18.698   C103.521,60.679,108.283,67.364,109.916,75.191z M81.191,110.441c-2.003-1.292-6.107-9.173-7.052-23.25h14.104   C87.297,101.272,83.193,109.151,81.191,110.441z M74.139,75.191c0.945-14.077,5.048-21.958,7.052-23.25   c2.003,1.29,6.107,9.169,7.052,23.25H74.139z M65.376,56.491c-1.781,5.601-2.851,12.105-3.253,18.699h-9.658   C54.097,67.364,58.86,60.679,65.376,56.491z M52.464,87.191h9.658c0.402,6.594,1.472,13.099,3.253,18.699   C58.86,101.702,54.097,95.017,52.464,87.191z M97.004,105.889c1.782-5.601,2.853-12.104,3.254-18.698h9.658   C108.283,95.017,103.521,101.702,97.004,105.889z" fill="#000000" data-original="#000000" style="" class=""/>
</g>
<g xmlns="http://www.w3.org/2000/svg">
</g>
<g xmlns="http://www.w3.org/2000/svg">
</g>
<g xmlns="http://www.w3.org/2000/svg">
</g>
<g xmlns="http://www.w3.org/2000/svg">
</g>
<g xmlns="http://www.w3.org/2000/svg">
</g>
<g xmlns="http://www.w3.org/2000/svg">
</g>
<g xmlns="http://www.w3.org/2000/svg">
</g>
<g xmlns="http://www.w3.org/2000/svg">
</g>
<g xmlns="http://www.w3.org/2000/svg">
</g>
<g xmlns="http://www.w3.org/2000/svg">
</g>
<g xmlns="http://www.w3.org/2000/svg">
</g>
<g xmlns="http://www.w3.org/2000/svg">
</g>
<g xmlns="http://www.w3.org/2000/svg">
</g>
<g xmlns="http://www.w3.org/2000/svg">
</g>
<g xmlns="http://www.w3.org/2000/svg">
</g>
</g></svg>
